<svg width="16" height="16" viewBox="0 0 16 16" fill="none" xmlns="http://www.w3.org/2000/svg">
<path d="M0 3C0 1.34315 1.34315 0 3 0H13C14.6569 0 16 1.34315 16 3V13C16 14.6569 14.6569 16 13 16H3C1.34315 16 0 14.6569 0 13V3Z" fill="#1B0229"/>
<path d="M11.2823 3.03921C11.477 3.12053 11.6358 3.25268 11.7588 3.43565C11.892 3.60845 11.9689 3.79143 11.9894 3.98456C12.0201 4.16754 11.9842 4.33526 11.8818 4.48774C11.7895 4.64021 11.6205 4.74186 11.3745 4.79269C10.9032 4.87401 10.4574 4.90959 10.0373 4.89942C9.62739 4.88926 9.26874 4.88418 8.96133 4.88418C8.96133 6.10399 8.96645 7.30347 8.9767 8.48263C8.98695 9.66178 8.98182 10.907 8.96133 12.2183C8.96133 12.5029 8.86398 12.7062 8.66928 12.8282C8.47459 12.9604 8.2594 13.0163 8.02371 12.9959C7.79828 12.9756 7.58821 12.8841 7.39351 12.7215C7.19882 12.5588 7.10147 12.3352 7.10147 12.0506C7.09122 10.8511 7.0861 9.6567 7.0861 8.46738C7.0861 7.27806 7.0861 6.08366 7.0861 4.88418C6.99387 4.88418 6.83504 4.88926 6.60961 4.89942C6.39442 4.90959 6.15361 4.91467 5.88718 4.91467C5.631 4.90451 5.36458 4.88418 5.08791 4.85368C4.81123 4.81302 4.57042 4.74186 4.36548 4.64021C4.20153 4.55889 4.09393 4.44199 4.0427 4.28952C3.99146 4.12688 3.98634 3.96423 4.02733 3.80159C4.07856 3.63895 4.16566 3.48647 4.28863 3.34416C4.41159 3.20185 4.5653 3.10528 4.74975 3.05446C5.61051 3.00363 6.44053 2.98838 7.23981 3.00871C8.04933 3.01888 8.8691 3.02396 9.69912 3.02396C9.94505 3.02396 10.191 3.02396 10.4369 3.02396C10.6828 3.0138 10.9339 3.00871 11.1901 3.00871L11.2823 3.03921Z" fill="#E32ADA"/>
</svg>
